<?xml version="1.0" ?><svg height="32" id="svg2" version="1.1" viewBox="0 0 32 32.000001" width="32" xmlns="http://www.w3.org/2000/svg" xmlns:cc="http://creativecommons.org/ns#" xmlns:dc="http://purl.org/dc/elements/1.1/" xmlns:inkscape="http://www.inkscape.org/namespaces/inkscape" xmlns:rdf="http://www.w3.org/1999/02/22-rdf-syntax-ns#" xmlns:sodipodi="http://sodipodi.sourceforge.net/DTD/sodipodi-0.dtd" xmlns:svg="http://www.w3.org/2000/svg"><defs id="defs4"/><g id="layer1" transform="translate(0,-1020.3622)"><g id="text11970" style="font-style:normal;font-weight:normal;font-size:35.48073959px;line-height:125%;font-family:sans-serif;letter-spacing:0px;word-spacing:0px;fill:#000000;fill-opacity:1;stroke:none;stroke-width:1px;stroke-linecap:butt;stroke-linejoin:miter;stroke-opacity:1"><g id="text12257" style="font-style:normal;font-weight:normal;font-size:44.40242004px;line-height:125%;font-family:sans-serif;letter-spacing:0px;word-spacing:0px;fill:#000000;fill-opacity:1;stroke:none;stroke-width:1px;stroke-linecap:butt;stroke-linejoin:miter;stroke-opacity:1"><g id="g3549"><g id="text12297" style="font-style:normal;font-weight:normal;font-size:45.12057877px;line-height:125%;font-family:sans-serif;letter-spacing:0px;word-spacing:0px;fill:#000000;fill-opacity:1;stroke:none;stroke-width:1px;stroke-linecap:butt;stroke-linejoin:miter;stroke-opacity:1"><g id="g4774"><g id="g8121"><path d="m 23.49997,-1036.2787 a 11.5,11.5 0 0 1 -11.5,11.5 11.5,11.5 0 0 1 -11.49999956,-11.5 11.5,11.5 0 0 1 11.49999956,-11.5 11.5,11.5 0 0 1 11.5,11.5 z" id="path5871-8" style="color:#000000;clip-rule:nonzero;display:inline;overflow:visible;visibility:visible;opacity:1;isolation:auto;mix-blend-mode:normal;color-interpolation:sRGB;color-interpolation-filters:linearRGB;solid-color:#000000;solid-opacity:1;fill:none;fill-opacity:1;fill-rule:nonzero;stroke:#000000;stroke-width:1;stroke-linecap:round;stroke-linejoin:round;stroke-miterlimit:4;stroke-dasharray:none;stroke-dashoffset:0;stroke-opacity:1;color-rendering:auto;image-rendering:auto;shape-rendering:auto;text-rendering:auto;enable-background:accumulate" transform="scale(1,-1)"/><path d="m 11.99997,1045.2786 a 8.9999914,8.9999914 0 0 1 -9,-9 8.9999914,8.9999914 0 0 1 9,-9 8.9999914,8.9999914 0 0 1 9,9 8.9999914,8.9999914 0 0 1 -9,9 z m 0,-2 a 6.9999957,6.9999957 0 0 0 7,-7 6.9999957,6.9999957 0 0 0 -7,-7 6.9999957,6.9999957 0 0 0 -7,7 6.9999957,6.9999957 0 0 0 7,7 z" id="path5873-3" style="color:#000000;clip-rule:nonzero;display:inline;overflow:visible;visibility:visible;opacity:1;isolation:auto;mix-blend-mode:normal;color-interpolation:sRGB;color-interpolation-filters:linearRGB;solid-color:#000000;solid-opacity:1;fill:#4bbfeb;fill-opacity:1;fill-rule:nonzero;stroke:none;stroke-width:0.99999988;stroke-linecap:round;stroke-linejoin:round;stroke-miterlimit:4;stroke-dasharray:none;stroke-dashoffset:0;stroke-opacity:1;color-rendering:auto;image-rendering:auto;shape-rendering:auto;text-rendering:auto;enable-background:accumulate"/><path d="m 11.99997,1031.2787 c -2.76142,0 -4.99999,2.2386 -5,5 10e-6,2.7614 2.23858,5 5,5 2.76142,0 4.99999,-2.2386 5,-5 -8.7e-4,-0.089 -0.004,-0.1785 -0.01,-0.2676 l -1.99805,0.1192 c 0.004,0.049 0.006,0.099 0.008,0.1484 0,1.6569 -1.34314,3 -3,3 -1.65685,0 -3,-1.3431 -3,-3 0,-1.6569 1.34315,-3 3,-3 0.46592,5e-4 0.92533,0.1095 1.3418,0.3184 l 1.10552,-1.6758 c -0.74718,-0.4205 -1.58991,-0.6418 -2.44727,-0.6426 z" id="circle5877-5" style="color:#000000;clip-rule:nonzero;display:inline;overflow:visible;visibility:visible;opacity:1;isolation:auto;mix-blend-mode:normal;color-interpolation:sRGB;color-interpolation-filters:linearRGB;solid-color:#000000;solid-opacity:1;fill:#4bbfeb;fill-opacity:1;fill-rule:nonzero;stroke:none;stroke-width:0.99999988;stroke-linecap:round;stroke-linejoin:round;stroke-miterlimit:4;stroke-dasharray:none;stroke-dashoffset:0;stroke-opacity:1;color-rendering:auto;image-rendering:auto;shape-rendering:auto;text-rendering:auto;enable-background:accumulate"/><path d="m 11.99997,1037.2786 c -0.55228,0 -0.99999,-0.4477 -1,-1 1e-5,-0.5523 0.44772,-1 1,-1 0.55229,0 1,0.4477 1,1 0,0.5523 -0.44771,1 -1,1 z" id="path5883-9" style="color:#000000;clip-rule:nonzero;display:inline;overflow:visible;visibility:visible;opacity:1;isolation:auto;mix-blend-mode:normal;color-interpolation:sRGB;color-interpolation-filters:linearRGB;solid-color:#000000;solid-opacity:1;fill:#4bbfeb;fill-opacity:1;fill-rule:nonzero;stroke:none;stroke-width:0.99999988;stroke-linecap:round;stroke-linejoin:round;stroke-miterlimit:4;stroke-dasharray:none;stroke-dashoffset:0;stroke-opacity:1;color-rendering:auto;image-rendering:auto;shape-rendering:auto;text-rendering:auto;enable-background:accumulate"/><path d="m 29.412681,1028.3643 -2.03909,-3.5338 -12.361371,7.141 2.03909,3.5338 z" id="path10110" style="color:#000000;clip-rule:nonzero;display:inline;overflow:visible;visibility:visible;opacity:1;isolation:auto;mix-blend-mode:normal;color-interpolation:sRGB;color-interpolation-filters:linearRGB;solid-color:#000000;solid-opacity:1;fill:#f8b84e;fill-opacity:1;fill-rule:nonzero;stroke:#000000;stroke-width:0.99999988;stroke-linecap:round;stroke-linejoin:round;stroke-miterlimit:4;stroke-dasharray:none;stroke-dashoffset:1.5;stroke-opacity:1;color-rendering:auto;image-rendering:auto;shape-rendering:auto;text-rendering:auto;enable-background:accumulate"/><path d="m 17.0513,1035.5053 -2.03909,-3.5338 -2.51226,3.8072 z" id="path10112" style="color:#000000;clip-rule:nonzero;display:inline;overflow:visible;visibility:visible;opacity:1;isolation:auto;mix-blend-mode:normal;color-interpolation:sRGB;color-interpolation-filters:linearRGB;solid-color:#000000;solid-opacity:1;fill:none;fill-opacity:1;fill-rule:nonzero;stroke:#000000;stroke-width:1;stroke-linecap:round;stroke-linejoin:round;stroke-miterlimit:4;stroke-dasharray:none;stroke-dashoffset:1.5;stroke-opacity:1;color-rendering:auto;image-rendering:auto;shape-rendering:auto;text-rendering:auto;enable-background:accumulate"/><path d="m 29.412681,1028.3643 1.324445,-0.7651 c 0.733733,-0.4238 0.98339,-1.3561 0.559769,-2.0903 l -0.509773,-0.8834 c -0.42362,-0.7342 -1.355353,-0.984 -2.089086,-0.5601 l -1.324445,0.7651 z" id="path10114" style="color:#000000;clip-rule:nonzero;display:inline;overflow:visible;visibility:visible;opacity:1;isolation:auto;mix-blend-mode:normal;color-interpolation:sRGB;color-interpolation-filters:linearRGB;solid-color:#000000;solid-opacity:1;fill:none;fill-opacity:1;fill-rule:nonzero;stroke:#000000;stroke-width:0.99999988;stroke-linecap:round;stroke-linejoin:round;stroke-miterlimit:4;stroke-dasharray:none;stroke-dashoffset:1.5;stroke-opacity:1;color-rendering:auto;image-rendering:auto;shape-rendering:auto;text-rendering:auto;enable-background:accumulate"/><path d="m 16.30137,1033.5837 0.3873,-0.2248 11.760092,-6.7936" id="path10116" style="fill:none;fill-rule:evenodd;stroke:#000000;stroke-width:0.99999994px;stroke-linecap:butt;stroke-linejoin:miter;stroke-opacity:1"/></g></g></g></g></g></g></g></svg>