<?xml version="1.0" ?><svg id="presentation-training-teaching-meeting-discussion" style="enable-background:new 0 0 64 64;" version="1.1" viewBox="0 0 64 64" xml:space="preserve" xmlns="http://www.w3.org/2000/svg" xmlns:xlink="http://www.w3.org/1999/xlink"><path d="M53,56.69c0.445-0.67,1.02-1.246,1.69-1.69c-0.67-0.445-1.245-1.02-1.69-1.69  c-0.445,0.67-1.02,1.245-1.69,1.69C51.98,55.445,52.555,56.02,53,56.69z" style="fill:none;"/><path d="M43,56.69c0.445-0.67,1.02-1.246,1.69-1.69c-0.67-0.445-1.245-1.02-1.69-1.69  c-0.445,0.67-1.02,1.245-1.69,1.69C41.98,55.445,42.555,56.02,43,56.69z" style="fill:none;"/><path d="M59,32c1.654,0,3-1.346,3-3V2H27v18h-1v3.341l0.465-0.199l6.884-5.9  c0.396-0.34,0.988-0.318,1.358,0.052l3,3c0.391,0.391,0.391,1.023,0,1.414l-7,7c-0.076,0.076-0.163,0.14-0.26,0.188L26,31.118V33h2  v-1H59z M43,23h-3v-2h3V23z M43,19h-4v-2h4V19z M31,10V6c0-0.553,0.448-1,1-1h10c0.552,0,1,0.447,1,1v1h3V6c0-0.553,0.448-1,1-1h10  c0.552,0,1,0.447,1,1v4c0,0.553-0.448,1-1,1h-4v3h4c0.552,0,1,0.447,1,1v4c0,0.553-0.448,1-1,1h-4v3h4c0.552,0,1,0.447,1,1v4  c0,0.553-0.448,1-1,1H47c-0.552,0-1-0.447-1-1v-4c0-0.553,0.448-1,1-1h4v-3h-4c-0.552,0-1-0.447-1-1v-4c0-0.553,0.448-1,1-1h4v-3h-4  c-0.552,0-1-0.447-1-1V9h-3v1c0,0.553-0.448,1-1,1H32C31.448,11,31,10.553,31,10z M32,15v-2h11v2H32z M37,25h6v2h-6V25z" style="fill:#F5EFE6;"/><path d="M4,8h1c0.315,0,0.611,0.148,0.8,0.4L7,10V9c0-0.553,0.448-1,1-1h7c0.551,0,1-0.448,1-1V3  c0-0.552-0.449-1-1-1H4C3.449,2,3,2.448,3,3v4C3,7.552,3.449,8,4,8z M5,4h9v2H5V4z" style="fill:#EBAA39;"/><circle cx="16" cy="18" r="4" style="fill:#5E8DA7;"/><rect height="2" style="fill:#EBAA39;" width="8" x="48" y="7"/><circle cx="38" cy="50" r="4" style="fill:#EBAA39;"/><path d="M33.948,19.362l-6.297,5.396c-0.077,0.066-0.164,0.12-0.257,0.16l-7,3C20.27,27.973,20.135,28,20,28  H8.454L2.13,35.227l2.454,7.362l2.146-1.073l-1.659-4.146c-0.133-0.334-0.077-0.715,0.148-0.996l4-5  c0.265-0.331,0.712-0.459,1.112-0.318C10.732,31.197,11,31.575,11,32v27c0,1.654,1.346,3,3,3h1V46c0-0.553,0.448-1,1-1s1,0.447,1,1  v16h4V32c0-0.379,0.214-0.725,0.553-0.894l7.855-3.928L35.586,21L33.948,19.362z M18,32h-1v8h-2v-8h-1v-2h4V32z" style="fill:#5E8DA7;"/><path d="M8.929,41.629C8.975,41.744,8.998,41.862,9,41.981v-7.13L7.145,37.17L8.929,41.629z" style="fill:#5E8DA7;"/><rect height="2" style="fill:#EBAA39;" width="8" x="33" y="7"/><rect height="2" style="fill:#EBAA39;" width="8" x="48" y="16"/><rect height="2" style="fill:#C13D3D;" width="8" x="48" y="25"/><circle cx="48" cy="50" r="4" style="fill:#EBAA39;"/><circle cx="58" cy="50" r="4" style="fill:#EBAA39;"/><path d="M38,56c-2.206,0-4,1.794-4,4v4h8v-4C42,57.794,40.206,56,38,56z" style="fill:#EBAA39;"/><path d="M48,56c-2.206,0-4,1.794-4,4v4h8v-4C52,57.794,50.206,56,48,56z" style="fill:#EBAA39;"/><path d="M58,56c-2.206,0-4,1.794-4,4v4h8v-4C62,57.794,60.206,56,58,56z" style="fill:#EBAA39;"/><path d="M10,18c0,3.309,2.691,6,6,6s6-2.691,6-6s-2.691-6-6-6S10,14.691,10,18z M20,18c0,2.206-1.794,4-4,4  c-2.206,0-4-1.794-4-4s1.794-4,4-4C18.206,14,20,15.794,20,18z" style="fill:#1F2933;"/><path d="M30.707,28.707l7-7c0.391-0.391,0.391-1.023,0-1.414l-3-3c-0.37-0.37-0.962-0.392-1.358-0.052  l-6.884,5.9L26,23.341L19.795,26H8c-0.289,0-0.563,0.124-0.752,0.342l-7,8c-0.234,0.267-0.309,0.638-0.196,0.975l3,9  c0.092,0.274,0.298,0.496,0.566,0.607c0.268,0.109,0.569,0.1,0.83-0.029l4-2C8.79,42.724,8.993,42.381,9,42.019V59  c0,2.757,2.243,5,5,5h8c0.552,0,1-0.447,1-1V32.618l3-1.5l4.447-2.224C30.544,28.847,30.631,28.783,30.707,28.707z M9,41.981  c-0.002-0.118-0.025-0.236-0.071-0.352L7.145,37.17L9,34.851V41.981z M21.553,31.106C21.214,31.275,21,31.621,21,32v30h-4V46  c0-0.553-0.448-1-1-1s-1,0.447-1,1v16h-1c-1.654,0-3-1.346-3-3V32c0-0.425-0.268-0.803-0.669-0.943  c-0.4-0.141-0.847-0.013-1.112,0.318l-4,5c-0.225,0.281-0.281,0.662-0.148,0.996l1.659,4.146L4.584,42.59L2.13,35.227L8.454,28H20  c0.135,0,0.269-0.027,0.394-0.081l7-3c0.093-0.04,0.18-0.094,0.257-0.16l6.297-5.396L35.586,21l-6.178,6.178L21.553,31.106z" style="fill:#1F2933;"/><polygon points="14,32 15,32 15,40 17,40 17,32 18,32 18,30 14,30 " style="fill:#1F2933;"/><path d="M64,50c0-3.309-2.691-6-6-6c-2.086,0-3.924,1.071-5,2.69c-1.076-1.62-2.914-2.69-5-2.69  s-3.924,1.071-5,2.69c-1.076-1.62-2.914-2.69-5-2.69c-3.309,0-6,2.691-6,6c0,2.086,1.071,3.924,2.69,5  C33.071,56.076,32,57.914,32,60v4h1h1v-4c0-2.206,1.794-4,4-4c2.206,0,4,1.794,4,4v4h1h1v-4c0-2.206,1.794-4,4-4  c2.206,0,4,1.794,4,4v4h1h1v-4c0-2.206,1.794-4,4-4c2.206,0,4,1.794,4,4v4h1h1v-4c0-2.086-1.071-3.924-2.69-5  C62.929,53.924,64,52.086,64,50z M53,53.31c0.445,0.67,1.02,1.245,1.69,1.69c-0.67,0.445-1.245,1.02-1.69,1.69  c-0.445-0.67-1.02-1.246-1.69-1.69C51.98,54.555,52.555,53.98,53,53.31z M48,46c2.206,0,4,1.794,4,4s-1.794,4-4,4  c-2.206,0-4-1.794-4-4S45.794,46,48,46z M43,53.31c0.445,0.67,1.02,1.245,1.69,1.69c-0.67,0.445-1.245,1.02-1.69,1.69  c-0.445-0.67-1.02-1.246-1.69-1.69C41.98,54.555,42.555,53.98,43,53.31z M34,50c0-2.206,1.794-4,4-4c2.206,0,4,1.794,4,4  s-1.794,4-4,4C35.794,54,34,52.206,34,50z M58,54c-2.206,0-4-1.794-4-4s1.794-4,4-4c2.206,0,4,1.794,4,4S60.206,54,58,54z" style="fill:#1F2933;"/><path d="M63,0H26c-0.552,0-1,0.447-1,1v19h1h1V2h35v27c0,1.654-1.346,3-3,3H28v1v1h31c2.757,0,5-2.243,5-5V1  C64,0.447,63.552,0,63,0z" style="fill:#1F2933;"/><path d="M42,11c0.552,0,1-0.447,1-1V9h3v1c0,0.553,0.448,1,1,1h4v3h-4c-0.552,0-1,0.447-1,1v4  c0,0.553,0.448,1,1,1h4v3h-4c-0.552,0-1,0.447-1,1v4c0,0.553,0.448,1,1,1h10c0.552,0,1-0.447,1-1v-4c0-0.553-0.448-1-1-1h-4v-3h4  c0.552,0,1-0.447,1-1v-4c0-0.553-0.448-1-1-1h-4v-3h4c0.552,0,1-0.447,1-1V6c0-0.553-0.448-1-1-1H47c-0.552,0-1,0.447-1,1v1h-3V6  c0-0.553-0.448-1-1-1H32c-0.552,0-1,0.447-1,1v4c0,0.553,0.448,1,1,1H42z M56,25v2h-8v-2H56z M56,16v2h-8v-2H56z M48,7h8v2h-8V7z   M33,7h8v2h-8V7z" style="fill:#1F2933;"/><rect height="2" style="fill:#1F2933;" width="11" x="32" y="13"/><rect height="2" style="fill:#1F2933;" width="4" x="39" y="17"/><rect height="2" style="fill:#1F2933;" width="3" x="40" y="21"/><rect height="2" style="fill:#1F2933;" width="6" x="37" y="25"/><path d="M4,10h0.5l2.7,3.6C7.393,13.856,7.691,14,8,14c0.105,0,0.212-0.017,0.316-0.052  C8.725,13.812,9,13.431,9,13v-3h6c1.654,0,3-1.346,3-3V3c0-1.654-1.346-3-3-3H4C2.346,0,1,1.346,1,3v4C1,8.654,2.346,10,4,10z M3,3  c0-0.552,0.449-1,1-1h11c0.551,0,1,0.448,1,1v4c0,0.552-0.449,1-1,1H8C7.448,8,7,8.447,7,9v1L5.8,8.4C5.611,8.148,5.315,8,5,8H4  C3.449,8,3,7.552,3,7V3z" style="fill:#1F2933;"/><rect height="2" style="fill:#1F2933;" width="9" x="5" y="4"/></svg>