<?xml version="1.0" ?><svg id="success-leader-winner-king-goal" style="enable-background:new 0 0 64 63.956;" version="1.1" viewBox="0 0 64 63.956" xml:space="preserve" xmlns="http://www.w3.org/2000/svg" xmlns:xlink="http://www.w3.org/1999/xlink"><polygon points="31.111,56.956 32.889,56.956 32,48.508 " style="fill:none;"/><path d="M39,35.956l0.873,9.586c0.535-0.088,1.06-0.082,1.418-0.04c0.643,0.075,1.206,0.28,1.752,0.479  l0.285,0.103c1.184,0.42,2.417,0.703,3.665,0.841c0.641,0.07,0.755-0.033,0.76-0.038c0.011-0.011,0.054-0.065,0.128-0.276  c0.192-0.547,0.275-1.143,0.242-1.722c-0.218-3.693-1.483-7.072-3.762-10.04c-0.648-0.844-1.397-1.668-2.121-2.464  c-1.154-1.268-2.328-2.576-3.24-4.084V35.956z" style="fill:#C13D3D;"/><path d="M27,26.956v9l-1.905,21H29.1l1.906-18.104c0.054-0.509,0.483-0.896,0.995-0.896  s0.941,0.386,0.995,0.896L34.9,56.956h4.004l-1.901-20.909L37,26.956c0-0.379,0.214-0.725,0.553-0.894l7.855-3.927l6.178-6.178  L49,13.37l-6.293,6.293c-0.101,0.101-0.222,0.179-0.356,0.23l-6.427,2.41l0.012,0.005l-3,8c-0.147,0.39-0.52,0.649-0.937,0.649  s-0.79-0.259-0.937-0.649l-3-8l0.012-0.005l-6.427-2.41c-0.134-0.05-0.255-0.128-0.356-0.23L15,13.37l-2.586,2.586l6.178,6.178  l7.855,3.927C26.786,26.23,27,26.577,27,26.956z" style="fill:#5E8DA7;"/><path d="M25.004,35.866L25,27.574l-0.066-0.033c-0.384,3.331-2.26,6.707-3.813,9.496l-0.412,0.741  c-1.283,2.321-2.371,4.747-3.251,7.247c0.13-0.093,0.263-0.184,0.396-0.272c0.548-0.361,1.286-0.792,2.15-0.75  c1.102,0.03,1.898,0.722,2.536,1.277c0.167,0.146,0.333,0.291,0.503,0.421c0.404,0.309,0.568,0.359,1.036,0.328L25.004,35.866z" style="fill:#C13D3D;"/><polygon points="33.557,22.956 30.443,22.956 32,27.107 " style="fill:#C13D3D;"/><circle cx="32" cy="12.956" r="4" style="fill:#F5EFE6;"/><path d="M32,6.956c1.21,0,2.335,0.363,3.278,0.981l0.415-2.908l-1.139,0.759  c-0.238,0.159-0.533,0.209-0.811,0.134c-0.277-0.073-0.509-0.263-0.638-0.519L32,3.191l-1.106,2.211  c-0.128,0.256-0.361,0.446-0.638,0.519c-0.278,0.073-0.573,0.025-0.811-0.134l-1.139-0.759l0.415,2.908  C29.665,7.318,30.79,6.956,32,6.956z" style="fill:#EBAA39;"/><polygon points="40,58.956 34,58.956 30,58.956 24,58.956 22,58.956 22,62.956 43,62.956 43,58.956 " style="fill:#EBAA39;"/><path d="M32,18.956c3.309,0,6-2.691,6-6c0-1.193-0.354-2.302-0.956-3.237l0.946-6.621  c0.056-0.391-0.123-0.777-0.456-0.988c-0.333-0.209-0.758-0.205-1.088,0.014l-2.058,1.372l-1.493-2.987  c-0.339-0.678-1.45-0.678-1.789,0l-1.493,2.987l-2.058-1.372c-0.329-0.22-0.755-0.224-1.088-0.014  c-0.333,0.211-0.513,0.597-0.456,0.988l0.946,6.621C26.354,10.653,26,11.763,26,12.956C26,16.264,28.691,18.956,32,18.956z   M29.445,5.788c0.239,0.16,0.534,0.208,0.811,0.134c0.277-0.073,0.509-0.263,0.638-0.519L32,3.191l1.105,2.211  c0.128,0.256,0.361,0.446,0.638,0.519c0.279,0.075,0.573,0.024,0.811-0.134l1.139-0.759l-0.415,2.908  C34.335,7.318,33.21,6.956,32,6.956s-2.335,0.363-3.278,0.981l-0.415-2.908L29.445,5.788z M32,8.956c2.206,0,4,1.794,4,4  c0,2.206-1.794,4-4,4c-2.206,0-4-1.794-4-4C28,10.75,29.794,8.956,32,8.956z" style="fill:#1F2933;"/><path d="M45,57.956c0-0.552-0.448-1-1-1h-3.087l-0.857-9.408c0.275-0.061,0.649-0.1,1.005-0.059  c0.409,0.048,0.84,0.205,1.298,0.372l0.301,0.109c1.329,0.472,2.712,0.789,4.114,0.944c0.138,0.015,0.348,0.038,0.596,0.038  c0.536,0,1.248-0.108,1.786-0.638c0.336-0.331,0.504-0.73,0.613-1.041c0.279-0.794,0.4-1.66,0.35-2.501  c-0.241-4.101-1.645-7.849-4.171-11.141c-0.699-0.911-1.477-1.766-2.229-2.592c-1.25-1.375-2.418-2.696-3.239-4.205l5.967-2.984  c0.096-0.048,0.184-0.111,0.26-0.188l7-7c0.391-0.391,0.391-1.023,0-1.414l-4-4c-0.391-0.391-1.023-0.391-1.414,0l-6.847,6.847  l-7.628,2.86h-3.638l-7.628-2.86l-6.847-6.847c-0.391-0.391-1.023-0.391-1.414,0l-4,4c-0.391,0.391-0.391,1.023,0,1.414l7,7  c0.076,0.076,0.163,0.139,0.26,0.188l5.431,2.715c-0.078,3.12-1.937,6.496-3.609,9.499l-0.415,0.746  c-1.991,3.6-3.53,7.443-4.577,11.422c-0.122,0.464,0.103,0.949,0.536,1.156c0.139,0.066,0.286,0.098,0.431,0.098  c0.31,0,0.612-0.144,0.805-0.407c0.773-1.048,1.715-1.942,2.801-2.657c0.304-0.2,0.643-0.424,0.996-0.421  c0.385,0.01,0.818,0.388,1.277,0.787c0.199,0.173,0.399,0.346,0.602,0.502c0.804,0.615,1.437,0.749,2.068,0.745l-0.811,8.92H21  c-0.552,0-1,0.448-1,1v4H0v2h21c0.552,0,1-0.448,1-1v-4h2h6h4h6h3v4c0,0.552,0.448,1,1,1h20v-2H45V57.956z M31.111,56.956L32,48.508  l0.889,8.447H31.111z M42.24,32.385c0.724,0.796,1.473,1.62,2.121,2.464c2.279,2.968,3.544,6.347,3.762,10.04  c0.034,0.58-0.049,1.175-0.242,1.722c-0.074,0.211-0.117,0.265-0.128,0.276c-0.005,0.004-0.12,0.108-0.76,0.038  c-1.248-0.138-2.481-0.421-3.665-0.841l-0.285-0.103c-0.546-0.199-1.109-0.404-1.752-0.479c-0.359-0.042-0.883-0.048-1.418,0.04  L39,35.956V28.3C39.911,29.808,41.086,31.117,42.24,32.385z M33.557,22.956L32,27.107l-1.557-4.152H33.557z M18.592,22.134  l-6.178-6.178L15,13.37l6.293,6.293c0.101,0.101,0.222,0.179,0.356,0.23l6.427,2.41l-0.012,0.005l3,8  c0.147,0.39,0.52,0.649,0.937,0.649s0.79-0.259,0.937-0.649l3-8l-0.012-0.005l6.427-2.41c0.134-0.05,0.255-0.128,0.356-0.23  L49,13.37l2.586,2.586l-6.178,6.178l-7.855,3.927C37.214,26.23,37,26.577,37,26.956l0.004,9.091l1.901,20.909H34.9l-1.906-18.104  c-0.054-0.509-0.483-0.896-0.995-0.896s-0.941,0.386-0.995,0.896L29.1,56.956h-4.005l1.905-21v-9c0-0.379-0.214-0.725-0.553-0.894  L18.592,22.134z M23.044,45.701c-0.17-0.13-0.336-0.276-0.503-0.421c-0.639-0.556-1.434-1.247-2.536-1.277  c-0.864-0.041-1.602,0.389-2.15,0.75c-0.134,0.088-0.266,0.179-0.396,0.272c0.88-2.5,1.969-4.926,3.251-7.247l0.412-0.741  c1.554-2.789,3.43-6.165,3.813-9.496L25,27.574l0.003,8.292L24.08,46.029C23.612,46.06,23.448,46.01,23.044,45.701z" style="fill:#1F2933;"/><path d="M59,24.956v-2c-4.962,0-9,4.038-9,9h2C52,28.096,55.14,24.956,59,24.956z" style="fill:#1F2933;"/><path d="M11,59.956h2c0-15.701-5.71-28-13-28v2C5.962,33.956,11,45.862,11,59.956z" style="fill:#1F2933;"/><path d="M8,22.956v2c3.86,0,7,3.589,7,8h2C17,27.441,12.962,22.956,8,22.956z" style="fill:#1F2933;"/><path d="M52,55.956h2c0-9.374,4.486-17,10-17v-2C57.271,36.956,52,45.301,52,55.956z" style="fill:#1F2933;"/><path d="M63,28.956v-2c-4.962,0-9,3.589-9,8h2C56,31.647,59.14,28.956,63,28.956z" style="fill:#1F2933;"/><path d="M4,57.956h2c0-3.309-2.691-6-6-6v2C2.206,53.956,4,55.75,4,57.956z" style="fill:#1F2933;"/><rect height="2" style="fill:#1F2933;" width="2" x="57" y="2.956"/><rect height="2" style="fill:#1F2933;" width="2" x="45" y="26.956"/><rect height="2" style="fill:#1F2933;" width="2" x="55" y="8.956"/><rect height="2" style="fill:#1F2933;" width="2" x="61" y="8.956"/><rect height="2" style="fill:#1F2933;" width="2" x="59" y="17.956"/><rect height="2" style="fill:#1F2933;" width="2" x="61" y="22.956"/><rect height="2" style="fill:#1F2933;" width="2" x="59" y="51.956"/><rect height="2" style="fill:#1F2933;" width="2" x="52" y="37.956"/><rect height="2" style="fill:#1F2933;" width="2" x="52" y="57.956"/><rect height="2" style="fill:#1F2933;" width="2" x="47" y="4.956"/><rect height="2" style="fill:#1F2933;" width="2" x="12" y="4.956"/><rect height="2" style="fill:#1F2933;" width="2" x="6" y="10.956"/><rect height="2" style="fill:#1F2933;" width="2" x="4" y="4.956"/><rect height="2" style="fill:#1F2933;" width="2" x="15" y="34.956"/><rect height="2" style="fill:#1F2933;" width="2" x="7" y="28.956"/><rect height="2" style="fill:#1F2933;" width="2" x="1" y="17.956"/><rect height="2" style="fill:#1F2933;" width="2" x="1" y="41.956"/></svg>