<?xml version="1.0" ?><svg id="distribution-dot-node-connection-relationship" style="enable-background:new 0 0 64 64;" version="1.1" viewBox="0 0 64 64" xml:space="preserve" xmlns="http://www.w3.org/2000/svg" xmlns:xlink="http://www.w3.org/1999/xlink"><circle cx="56" cy="8" r="3" style="fill:#EBAA39;"/><circle cx="46" cy="18" r="3" style="fill:#5E8DA7;"/><circle cx="5" cy="32" r="3" style="fill:#EBAA39;"/><circle cx="59" cy="32" r="3" style="fill:#EBAA39;"/><circle cx="32" cy="5" r="3" style="fill:#EBAA39;"/><circle cx="32" cy="32" r="3" style="fill:#C13D3D;"/><circle cx="46" cy="32" r="3" style="fill:#5E8DA7;"/><circle cx="18" cy="18" r="3" style="fill:#5E8DA7;"/><circle cx="8" cy="8" r="3" style="fill:#EBAA39;"/><circle cx="32" cy="18" r="3" style="fill:#5E8DA7;"/><circle cx="32" cy="59" r="3" style="fill:#EBAA39;"/><circle cx="32" cy="46" r="3" style="fill:#5E8DA7;"/><circle cx="8" cy="56" r="3" style="fill:#EBAA39;"/><circle cx="18" cy="46" r="3" style="fill:#5E8DA7;"/><circle cx="56" cy="56" r="3" style="fill:#EBAA39;"/><circle cx="18" cy="32" r="3" style="fill:#5E8DA7;"/><circle cx="46" cy="46" r="3" style="fill:#5E8DA7;"/><path d="M41.101,33c0.465,2.279,2.485,4,4.899,4c2.414,0,4.434-1.721,4.899-4h3.202  c0.465,2.279,2.485,4,4.899,4c2.757,0,5-2.243,5-5c0-2.757-2.243-5-5-5c-2.414,0-4.434,1.721-4.899,4h-3.202  c-0.465-2.279-2.485-4-4.899-4c-2.414,0-4.434,1.721-4.899,4h-4.202c-0.13-0.637-0.384-1.228-0.732-1.753l7.08-7.08  C44.038,22.691,44.983,23,46,23c2.757,0,5-2.243,5-5c0-1.017-0.309-1.962-0.833-2.753l3.08-3.08C54.038,12.691,54.983,13,56,13  c2.757,0,5-2.243,5-5c0-2.757-2.243-5-5-5c-2.757,0-5,2.243-5,5c0,1.017,0.309,1.962,0.833,2.753l-3.08,3.08  C47.962,13.309,47.017,13,46,13c-2.757,0-5,2.243-5,5c0,1.017,0.309,1.962,0.833,2.753l-7.08,7.08  c-0.524-0.348-1.116-0.602-1.753-0.732v-4.202c2.279-0.465,4-2.484,4-4.899c0-2.414-1.721-4.434-4-4.899V9.899  C35.279,9.434,37,7.414,37,5c0-2.757-2.243-5-5-5c-2.757,0-5,2.243-5,5c0,2.414,1.721,4.434,4,4.899v3.202  c-2.279,0.465-4,2.484-4,4.899c0,2.414,1.721,4.434,4,4.899v4.202c-0.637,0.13-1.229,0.384-1.753,0.732l-7.08-7.08  C22.691,19.962,23,19.017,23,18c0-2.757-2.243-5-5-5c-1.017,0-1.962,0.309-2.753,0.833l-3.08-3.08C12.691,9.962,13,9.017,13,8  c0-2.757-2.243-5-5-5C5.243,3,3,5.243,3,8c0,2.757,2.243,5,5,5c1.017,0,1.962-0.309,2.753-0.833l3.08,3.08  C13.309,16.038,13,16.983,13,18c0,2.757,2.243,5,5,5c1.017,0,1.962-0.309,2.753-0.833l7.08,7.08  c-0.348,0.524-0.602,1.116-0.732,1.753h-4.202c-0.465-2.279-2.484-4-4.899-4c-2.414,0-4.434,1.721-4.899,4H9.899  C9.434,28.721,7.414,27,5,27c-2.757,0-5,2.243-5,5c0,2.757,2.243,5,5,5c2.414,0,4.434-1.721,4.899-4h3.202  c0.465,2.279,2.484,4,4.899,4c2.414,0,4.434-1.721,4.899-4h4.202c0.13,0.637,0.384,1.229,0.732,1.753l-7.08,7.08  C19.962,41.309,19.017,41,18,41c-2.757,0-5,2.243-5,5c0,1.017,0.309,1.962,0.833,2.753l-3.08,3.08C9.962,51.309,9.017,51,8,51  c-2.757,0-5,2.243-5,5c0,2.757,2.243,5,5,5c2.757,0,5-2.243,5-5c0-1.017-0.309-1.962-0.833-2.753l3.08-3.08  C16.038,50.691,16.983,51,18,51c2.757,0,5-2.243,5-5c0-1.017-0.309-1.962-0.833-2.753l7.08-7.08  c0.524,0.348,1.116,0.602,1.753,0.732v4.202c-2.279,0.465-4,2.485-4,4.899c0,2.414,1.721,4.434,4,4.899v3.202  c-2.279,0.465-4,2.485-4,4.899c0,2.757,2.243,5,5,5c2.757,0,5-2.243,5-5c0-2.414-1.721-4.434-4-4.899v-3.202  c2.279-0.465,4-2.484,4-4.899c0-2.414-1.721-4.434-4-4.899v-4.202c0.637-0.13,1.228-0.384,1.753-0.732l7.08,7.08  C41.309,44.038,41,44.983,41,46c0,2.757,2.243,5,5,5c1.017,0,1.962-0.309,2.753-0.833l3.08,3.08C51.309,54.038,51,54.983,51,56  c0,2.757,2.243,5,5,5c2.757,0,5-2.243,5-5c0-2.757-2.243-5-5-5c-1.017,0-1.962,0.309-2.753,0.833l-3.08-3.08  C50.691,47.962,51,47.017,51,46c0-2.757-2.243-5-5-5c-1.017,0-1.962,0.309-2.753,0.833l-7.08-7.08  c0.348-0.524,0.602-1.116,0.732-1.753H41.101z M59,29c1.654,0,3,1.346,3,3c0,1.654-1.346,3-3,3c-1.654,0-3-1.346-3-3  C56,30.346,57.346,29,59,29z M46,29c1.654,0,3,1.346,3,3c0,1.654-1.346,3-3,3c-1.654,0-3-1.346-3-3C43,30.346,44.346,29,46,29z   M5,35c-1.654,0-3-1.346-3-3c0-1.654,1.346-3,3-3c1.654,0,3,1.346,3,3C8,33.654,6.654,35,5,35z M18,35c-1.654,0-3-1.346-3-3  c0-1.654,1.346-3,3-3c1.654,0,3,1.346,3,3C21,33.654,19.654,35,18,35z M56,5c1.654,0,3,1.346,3,3c0,1.654-1.346,3-3,3  c-1.654,0-3-1.346-3-3C53,6.346,54.346,5,56,5z M46,15c1.654,0,3,1.346,3,3c0,1.654-1.346,3-3,3c-1.654,0-3-1.346-3-3  C43,16.346,44.346,15,46,15z M29,5c0-1.654,1.346-3,3-3c1.654,0,3,1.346,3,3c0,1.654-1.346,3-3,3C30.346,8,29,6.654,29,5z M29,18  c0-1.654,1.346-3,3-3c1.654,0,3,1.346,3,3c0,1.654-1.346,3-3,3C30.346,21,29,19.654,29,18z M8,11c-1.654,0-3-1.346-3-3  c0-1.654,1.346-3,3-3c1.654,0,3,1.346,3,3C11,9.654,9.654,11,8,11z M18,21c-1.654,0-3-1.346-3-3c0-1.654,1.346-3,3-3  c1.654,0,3,1.346,3,3C21,19.654,19.654,21,18,21z M8,59c-1.654,0-3-1.346-3-3c0-1.654,1.346-3,3-3c1.654,0,3,1.346,3,3  C11,57.654,9.654,59,8,59z M18,49c-1.654,0-3-1.346-3-3c0-1.654,1.346-3,3-3c1.654,0,3,1.346,3,3C21,47.654,19.654,49,18,49z M35,59  c0,1.654-1.346,3-3,3c-1.654,0-3-1.346-3-3c0-1.654,1.346-3,3-3C33.654,56,35,57.346,35,59z M35,46c0,1.654-1.346,3-3,3  c-1.654,0-3-1.346-3-3c0-1.654,1.346-3,3-3C33.654,43,35,44.346,35,46z M32,35c-1.654,0-3-1.346-3-3c0-1.654,1.346-3,3-3  c1.654,0,3,1.346,3,3C35,33.654,33.654,35,32,35z M56,53c1.654,0,3,1.346,3,3c0,1.654-1.346,3-3,3c-1.654,0-3-1.346-3-3  C53,54.346,54.346,53,56,53z M46,43c1.654,0,3,1.346,3,3c0,1.654-1.346,3-3,3c-1.654,0-3-1.346-3-3C43,44.346,44.346,43,46,43z" style="fill:#1F2933;"/></svg>