<?xml version="1.0" ?><!DOCTYPE svg  PUBLIC '-//W3C//DTD SVG 1.1//EN'  'http://www.w3.org/Graphics/SVG/1.1/DTD/svg11.dtd'><svg enable-background="new 0 0 128 128" height="128px" id="Layer_1" version="1.1" viewBox="0 0 128 128" width="128px" xml:space="preserve" xmlns="http://www.w3.org/2000/svg" xmlns:xlink="http://www.w3.org/1999/xlink"><g><g><g><g><path d="M60.611,33.89c2.382,5.031,4.533,10.224,6.064,15.646c1.558,5.41,2.611,10.975,3.345,16.57      c0.728,5.601,1.119,11.24,1.298,16.879c0.164,5.662,0.151,11.249-0.153,17.015l-7.062-0.812      c0.856-5.309,1.467-10.845,1.884-16.314c0.415-5.485,0.614-10.993,0.489-16.496c-0.131-5.502-0.574-11.003-1.532-16.438      C64.016,44.494,62.45,39.155,60.611,33.89z" fill="#55AA23"/></g></g></g><g><g><g><path d="M82.979,57.498c-0.61,2.839-1.364,5.654-2.254,8.438c-0.905,2.78-1.928,5.541-3.354,8.203      c-1.35,2.505-2.518,5.123-3.643,7.766c-1.12,2.645-2.186,5.333-3.175,8.006l-4.22-1.878c1.386-2.612,2.813-5.154,4.304-7.689      c1.494-2.521,3.037-5.028,4.776-7.431c1.633-2.257,2.996-4.807,4.236-7.401C80.881,62.907,81.998,60.229,82.979,57.498z" fill="#55AA23"/></g></g></g><g><g><g><path d="M41.363,52.916c5.221,2.911,10.343,6.021,15.306,9.435c2.498,1.719,4.885,3.613,7.194,5.571      c2.311,1.967,4.537,3.971,6.748,6.111l-3.433,3.089c-3.67-4.54-7.598-9.029-11.944-12.954      C50.825,60.206,46.164,56.47,41.363,52.916z" fill="#55AA23"/></g></g></g><path d="M78.385,69.624c0,0-4.728-6.966,0.396-17.554c4.155-8.593,12.271-8.396,14.265-17.092   c1.727,9.714,3.933,18.476-1.034,25.846C86.67,68.753,78.385,69.624,78.385,69.624" fill="#55AA23"/><path d="M54.527,61.978c0,0-2.125-11.728-8.97-16.393c-7.9-5.384-13.488-2.075-20.551-7.034   c3.141,9.368,3.712,16.403,11.396,20.962C44.634,64.401,54.527,61.978,54.527,61.978" fill="#55AA23"/><path d="M65.683,48.909c0,0,8.447-7.139,4.933-22.091C67.689,14.386,55.506,12.504,52.825,0   c-3.39,14.413-8.38,21.513-4.804,32.643C52.075,45.266,65.683,48.909,65.683,48.909" fill="#55AA23"/></g><path d="M19.781,94.825c4.857-0.304,6.243-2.446,8.283-3.778c2.662-1.738,8.498-5.046,17.584-3.611  c8.719,1.364,9.88,1.666,17.255,3.735c5.328,1.488,9.723,3.179,12.697,2.688c4.424-0.738,10.664-3.039,14.313-2.894  c6.646,0.274,9.733,2.349,10.153,4.681c0.47,2.715-1.633,5.529-9.506,7.248c-1.929,0.42-9.812,2.004-12.656,2.769  c-2.021,0.538-3.672,1.153-7.844,2.378c-0.226,0.066,7.64,1.107,12.41,2.38c1.104,0.293,1.903,0.649,2.729,0.586  c0.963-0.065,1.979-0.601,2.99-0.991c5.711-2.166,11.07-3.133,11.877-3.281c0.945-0.182,2.74-1.652,6.867-4.236  c2.613-1.627,4.111-2.131,6.117-4.23c0,0,9.531-13.938,14.35-8.963c2.307,2.393-2.592,8.881-5.793,13.989  c-0.66,1.063-1.48,2.423-2.109,3.179c-1.096,1.291-7.133,5.614-10.746,8.332c-1.215,0.91-2.939,2.864-6.912,4.285  c-1.438,0.514-17.232,7.604-23.773,8.912c-9.08,0.021-17.778-1.801-25.001-2.896c-11.711-1.763-22.699-3.945-31.998-4.528  c-5.311-0.333-12.494,0.155-16.318,0.058c0,0-2.778-0.011-3.813-1.254c-1.085-1.302-0.928-3.904-0.928-3.904V98.161  c0,0,0.017-1.963,1.177-2.869c1.16-0.91,2.031-0.827,3.408-0.776C9.383,94.691,16.66,95.021,19.781,94.825z" fill="#191919"/></svg>